<svg id="Layer_1" data-name="Layer 1" xmlns="http://www.w3.org/2000/svg" viewBox="0 0 1280 800"><defs><style>.cls-1{fill:#263039;}</style></defs><polygon class="cls-1" points="535 498.8 618.6 545.9 618.6 310.8 535 263.6 535 498.8"/><polygon class="cls-1" points="478.6 167 478.6 167 478.6 166.9 478.6 167"/><path class="cls-1" d="M604.7,238.1h0Z"/><path class="cls-1" d="M576.8,113l-12.2,5.4L372.8,224.3V570.7l173.5,98.5.6.3,94-56.1-.6-1-1.2-.7L478.6,521.2V168.7l1.5-.9,124.6,70.3h0L675,277.8v346l89.7,54.5,16.4,8.7V337.6l20,11.3,89.2-46,16.9-8.1Zm-98.2,54h0Z"/><polygon class="cls-1" points="559.2 177.3 559.1 177.3 559.1 177.3 559.2 177.3"/><polygon class="cls-1" points="720.9 622.7 719.7 622.1 720.3 621.7 720.9 622.7"/></svg>