<svg id="Layer_1" data-name="Layer 1" xmlns="http://www.w3.org/2000/svg" viewBox="0 0 1280 800"><defs><style>.cls-1{fill:#263039;}</style></defs><path class="cls-1" d="M347.3,387.6a23.4,23.4,0,0,0-8.5-8.6,23,23,0,0,0-23.5,0,23.6,23.6,0,0,0-8.6,8.6,24.2,24.2,0,0,0,0,23.7,23.6,23.6,0,0,0,8.6,8.6,22.9,22.9,0,0,0,11.7,3.2,23.6,23.6,0,0,0,20.3-35.5Zm-5.2,20.7a17.6,17.6,0,0,1-6.3,6.4,17.6,17.6,0,0,1-26.3-15.3,16.6,16.6,0,0,1,2.4-8.8,17.1,17.1,0,0,1,15.1-8.8,16.8,16.8,0,0,1,15.1,8.8,16.6,16.6,0,0,1,2.4,8.8A17.2,17.2,0,0,1,342.1,408.3Z"/><polygon class="cls-1" points="420.9 410.8 405.4 376.3 399 376.3 420.9 425.4 442.9 376.3 436.4 376.3 420.9 410.8"/><path class="cls-1" d="M604.2,403.3a15.3,15.3,0,0,0,4.5-1.3,14.8,14.8,0,0,0,5.8-4.6,12.5,12.5,0,0,0,2.5-7.5,11.6,11.6,0,0,0-1.2-5.1,14.1,14.1,0,0,0-3.3-4.4,14.4,14.4,0,0,0-5.2-3.1,17.9,17.9,0,0,0-6.2-1H584.4v46.3h6V382.2h10.7a12.5,12.5,0,0,1,5.3,1.1,9.5,9.5,0,0,1,3.5,3,6.3,6.3,0,0,1,1.1,3.6,6.1,6.1,0,0,1-1.3,3.9,9,9,0,0,1-3.4,2.8,18.7,18.7,0,0,1-7.4,1.2h-8.5l20.5,24.8h7.8l-15.8-19.2Z"/><polygon class="cls-1" points="670 382.2 687.3 382.2 687.3 422.6 693.3 422.6 693.3 382.2 710.4 382.2 710.4 376.3 670 376.3 670 382.2"/><polygon class="cls-1" points="755.8 422.6 762.3 422.6 767.4 411.6 770.2 405.7 778.3 388.1 786.1 405.7 788.7 411.6 793.6 422.6 800 422.6 778.5 373.7 755.8 422.6"/><polygon class="cls-1" points="890.3 376.3 882.9 376.3 859.8 408.1 859.8 376.3 853.9 376.3 853.9 426.3 869.5 405 884.3 422.6 892.1 422.6 873 400 890.3 376.3"/><rect class="cls-1" x="496.8" y="376.3" width="31" height="5.98"/><rect class="cls-1" x="496.8" y="396.4" width="31" height="5.98"/><rect class="cls-1" x="496.8" y="416.6" width="31" height="5.98"/><rect class="cls-1" x="945.4" y="376.3" width="31" height="5.98"/><rect class="cls-1" x="945.4" y="396.4" width="31" height="5.98"/><rect class="cls-1" x="945.4" y="416.6" width="31" height="5.98"/></svg>